<!DOCTYPE svg PUBLIC "-//W3C//DTD SVG 1.1//EN" "http://www.w3.org/Graphics/SVG/1.1/DTD/svg11.dtd">
<!-- Uploaded to: SVG Repo, www.svgrepo.com, Transformed by: SVG Repo Mixer Tools -->
<svg fill="#F15A24" version="1.1" id="Capa_1" xmlns="http://www.w3.org/2000/svg" xmlns:xlink="http://www.w3.org/1999/xlink" width="800px" height="800px" viewBox="0 0 164.188 164.188" xml:space="preserve">
<g id="SVGRepo_bgCarrier" stroke-width="0"/>
<g id="SVGRepo_tracerCarrier" stroke-linecap="round" stroke-linejoin="round"/>
<g id="SVGRepo_iconCarrier"> <g> <path d="M71.706,108.545c0-3.544,2.862-6.412,6.403-6.412c3.538,0,6.412,2.868,6.412,6.412c0,3.525-2.874,6.399-6.412,6.399 C74.568,114.958,71.706,112.083,71.706,108.545z M12.434,81.327l17.594-17.582L12.434,46.153v7.846H0v19.498h12.434V81.327z M164.188,40.743v65.787c0,8.415-13.677,13.244-28.741,14.236c6.711,12.507,9.512,23.857,8.488,34.653 c-0.158,1.626-1.51,2.819-3.093,2.819c-0.11,0-0.207,0-0.305-0.012c-1.717-0.158-2.983-1.692-2.813-3.397 c0.901-9.311-1.559-19.267-7.367-30.355c-15.638,6.395-33.309,9.834-51.256,9.834c-0.012,0-0.024,0-0.024,0 c-18.575,0-36.794-3.646-52.869-10.497c-4.564,8.524-8.817,19.425-7.721,31.019c0.159,1.705-1.096,3.239-2.81,3.397 c-0.101,0.012-0.188,0.012-0.295,0.012c-1.595,0-2.947-1.193-3.102-2.819c-1.842-19.381,9.121-36.425,15.013-45.577 c28.726-44.597-5.063-82.657-6.516-84.252c-1.166-1.273-1.06-3.249,0.207-4.402c1.288-1.154,3.243-1.066,4.394,0.201 c0.387,0.423,38.511,43.142,7.146,91.828c-0.929,1.461-2.031,3.215-3.179,5.065c15.138,6.357,32.224,9.779,49.728,9.779 c0.012,0,0.012,0,0.024,0c15.104,0,29.913-2.637,43.431-7.404c-14.553-1.175-27.444-5.979-27.444-14.151V40.73 c0-2.987,1.84-7.097,9.828-10.345V16.843c0-0.451,0.109-0.88,0.28-1.26c1.406-6.58,13.25-9.633,24.442-9.633 c11.18,0,23.022,3.054,24.441,9.633c0.164,0.387,0.268,0.81,0.268,1.26v13.548C162.349,33.664,164.188,37.774,164.188,40.743z M148.113,24.317c-4.811,2.296-11.752,3.432-18.475,3.432s-13.652-1.136-18.487-3.432v7.788c0.037,0.314,0.049,0.612,0,0.904v0.893 c0.378,1.239,6.625,4.652,18.487,4.652c11.85,0,18.109-3.413,18.486-4.707L148.113,24.317z M111.151,16.898v0.018 c0.39,1.19,6.638,4.598,18.487,4.598s18.109-3.419,18.486-4.716c-0.377-1.19-6.625-4.601-18.486-4.601 C117.8,12.197,111.553,15.594,111.151,16.898z M101.324,40.743c0,2.78,9.998,8.193,28.314,8.193s28.314-5.414,28.314-8.193 c0-0.956-1.425-2.451-4.408-3.903c-2.898,5.423-13.713,7.943-23.906,7.943c-10.206,0-21.02-2.527-23.918-7.955 C102.346,38.465,101.324,40.024,101.324,40.743z M101.324,88.945c0,2.618,8.865,7.574,25.196,8.135V73.445 c-9.779-0.341-19.241-2.293-25.196-5.767V88.945z M157.953,106.53V49.365c-6.589,3.83-17.488,5.812-28.314,5.812 c-10.827,0-21.727-1.976-28.314-5.812v9.703c0,2.78,9.998,8.193,28.314,8.193c1.717,0,3.117,1.395,3.117,3.117v29.867 c0,1.718-1.4,3.118-3.117,3.118c-10.827,0-21.727-1.974-28.314-5.821v8.976c0,2.776,9.998,8.196,28.314,8.196 S157.953,109.313,157.953,106.53z"/> </g> </g>
</svg>